# xmcd
#
# Track frame offsets: 
#        150
#        42388
#        61554
#        86752
#        113213
#        141011
#        169062
#        213934
#
# Disc length: 3280 seconds
#
# Revision: 0
# Processed by: cddbd v1.5.2PL0 Copyright (c) Steve Scherf et al.
# Submitted via: ExactAudioCopyFreeDBPlugin 1.0
#
DISCID=670cce08
DTITLE=Cyril Neville - Live at 2015 New Orleans Jazz and Heritage Festiv
DTITLE=al
DYEAR=2015
DGENRE=Blues
TTITLE0=Uptown Reggae
TTITLE1=I Will Survive
TTITLE2=Piece Of The Pie
TTITLE3=My Blood
TTITLE4=The Border
TTITLE5=Sister Rosa
TTITLE6=Rock With Me
TTITLE7=Second Line Soca
EXTD=
EXTT0=
EXTT1=
EXTT2=
EXTT3=
EXTT4=
EXTT5=
EXTT6=
EXTT7=
PLAYORDER=
